solid OpenSCAD_Model
  facet normal -1 0 -2.22045e-16
    outer loop
      vertex 1.11022e-14 0 -50
      vertex 0 0 0
      vertex 6.66134e-15 10 -30
    endloop
  endfacet
  facet normal -1 0 -2.22045e-16
    outer loop
      vertex 6.66134e-15 10 -30
      vertex 1.11022e-14 10 -50
      vertex 1.11022e-14 0 -50
    endloop
  endfacet
  facet normal -1 0 -2.22045e-16
    outer loop
      vertex 6.66134e-15 10 -30
      vertex 0 0 0
      vertex 4.44089e-15 10 -20
    endloop
  endfacet
  facet normal -1 0 -2.22045e-16
    outer loop
      vertex 6.66134e-15 10 -30
      vertex 4.44089e-15 20 -20
      vertex 6.66134e-15 20 -30
    endloop
  endfacet
  facet normal -1 0 -2.22045e-16
    outer loop
      vertex 6.66134e-15 10 -30
      vertex 4.44089e-15 10 -20
      vertex 4.44089e-15 20 -20
    endloop
  endfacet
  facet normal -1 0 -2.22045e-16
    outer loop
      vertex 0 0 0
      vertex 2.22045e-15 10 -10
      vertex 4.44089e-15 10 -20
    endloop
  endfacet
  facet normal -1 0 -2.22045e-16
    outer loop
      vertex 2.22045e-15 10 -10
      vertex 0 30 0
      vertex 2.22045e-15 30 -10
    endloop
  endfacet
  facet normal -1 0 -2.22045e-16
    outer loop
      vertex 2.22045e-15 10 -10
      vertex 0 0 0
      vertex 0 30 0
    endloop
  endfacet
  facet normal 1 -7.10543e-17 2.13163e-16
    outer loop
      vertex 10 10 -30
      vertex 10 0 2.22045e-15
      vertex 10 0 -50
    endloop
  endfacet
  facet normal 1 -0 1.77636e-16
    outer loop
      vertex 10 0 -50
      vertex 10 10 -50
      vertex 10 10 -30
    endloop
  endfacet
  facet normal 1 3.55271e-16 3.55271e-16
    outer loop
      vertex 10 10 -20
      vertex 10 0 2.22045e-15
      vertex 10 10 -30
    endloop
  endfacet
  facet normal 1 0 3.55271e-16
    outer loop
      vertex 10 20 -30
      vertex 10 20 -20
      vertex 10 10 -30
    endloop
  endfacet
  facet normal 1 0 3.55271e-16
    outer loop
      vertex 10 20 -20
      vertex 10 10 -20
      vertex 10 10 -30
    endloop
  endfacet
  facet normal 1 6.31089e-32 1.77636e-16
    outer loop
      vertex 10 10 -20
      vertex 10 10 -10
      vertex 10 0 2.22045e-15
    endloop
  endfacet
  facet normal 1 0 1.77636e-16
    outer loop
      vertex 10 30 -10
      vertex 10 30 2.22045e-15
      vertex 10 10 -10
    endloop
  endfacet
  facet normal 1 0 1.77636e-16
    outer loop
      vertex 10 30 2.22045e-15
      vertex 10 0 2.22045e-15
      vertex 10 10 -10
    endloop
  endfacet
  facet normal 0 1 0
    outer loop
      vertex 6.66134e-15 10 -30
      vertex 10 10 -50
      vertex 1.11022e-14 10 -50
    endloop
  endfacet
  facet normal -0 1 0
    outer loop
      vertex 6.66134e-15 10 -30
      vertex 10 10 -30
      vertex 10 10 -50
    endloop
  endfacet
  facet normal 3.55271e-16 0 -1
    outer loop
      vertex 6.66134e-15 20 -30
      vertex 10 10 -30
      vertex 6.66134e-15 10 -30
    endloop
  endfacet
  facet normal 3.55271e-16 0 -1
    outer loop
      vertex 6.66134e-15 20 -30
      vertex 10 20 -30
      vertex 10 10 -30
    endloop
  endfacet
  facet normal 0 1 0
    outer loop
      vertex 4.44089e-15 20 -20
      vertex 10 20 -30
      vertex 6.66134e-15 20 -30
    endloop
  endfacet
  facet normal -0 1 0
    outer loop
      vertex 4.44089e-15 20 -20
      vertex 10 20 -20
      vertex 10 20 -30
    endloop
  endfacet
  facet normal -3.55271e-16 0 1
    outer loop
      vertex 4.44089e-15 10 -20
      vertex 10 20 -20
      vertex 4.44089e-15 20 -20
    endloop
  endfacet
  facet normal -3.55271e-16 0 1
    outer loop
      vertex 4.44089e-15 10 -20
      vertex 10 10 -20
      vertex 10 20 -20
    endloop
  endfacet
  facet normal 0 1 0
    outer loop
      vertex 2.22045e-15 10 -10
      vertex 10 10 -20
      vertex 4.44089e-15 10 -20
    endloop
  endfacet
  facet normal -0 1 0
    outer loop
      vertex 2.22045e-15 10 -10
      vertex 10 10 -10
      vertex 10 10 -20
    endloop
  endfacet
  facet normal 1.77636e-16 0 -1
    outer loop
      vertex 2.22045e-15 30 -10
      vertex 10 10 -10
      vertex 2.22045e-15 10 -10
    endloop
  endfacet
  facet normal 1.77636e-16 0 -1
    outer loop
      vertex 2.22045e-15 30 -10
      vertex 10 30 -10
      vertex 10 10 -10
    endloop
  endfacet
  facet normal 0 1 0
    outer loop
      vertex 0 30 0
      vertex 10 30 -10
      vertex 2.22045e-15 30 -10
    endloop
  endfacet
  facet normal -0 1 0
    outer loop
      vertex 0 30 0
      vertex 10 30 2.22045e-15
      vertex 10 30 -10
    endloop
  endfacet
  facet normal -2.22045e-16 0 1
    outer loop
      vertex 0 0 0
      vertex 10 30 2.22045e-15
      vertex 0 30 0
    endloop
  endfacet
  facet normal -2.22045e-16 0 1
    outer loop
      vertex 0 0 0
      vertex 10 0 2.22045e-15
      vertex 10 30 2.22045e-15
    endloop
  endfacet
  facet normal 0 -1 0
    outer loop
      vertex 1.11022e-14 0 -50
      vertex 10 0 2.22045e-15
      vertex 0 0 0
    endloop
  endfacet
  facet normal 0 -1 0
    outer loop
      vertex 1.11022e-14 0 -50
      vertex 10 0 -50
      vertex 10 0 2.22045e-15
    endloop
  endfacet
  facet normal 0 0 -1
    outer loop
      vertex 1.11022e-14 10 -50
      vertex 10 0 -50
      vertex 1.11022e-14 0 -50
    endloop
  endfacet
  facet normal 0 0 -1
    outer loop
      vertex 1.11022e-14 10 -50
      vertex 10 10 -50
      vertex 10 0 -50
    endloop
  endfacet
endsolid OpenSCAD_Model
