solid OpenSCAD_Model
  facet normal 0 -1 0
    outer loop
      vertex -14 -15 30
      vertex -6 -15 1
      vertex -6 -15 30
    endloop
  endfacet
  facet normal 0 -1 0
    outer loop
      vertex -14 -15 0
      vertex -6 -15 1
      vertex -14 -15 30
    endloop
  endfacet
  facet normal 0 -1 0
    outer loop
      vertex 14 -15 0
      vertex -6 -15 1
      vertex -14 -15 0
    endloop
  endfacet
  facet normal 0 -1 0
    outer loop
      vertex -6 -15 1
      vertex 14 -15 0
      vertex 14 -15 1
    endloop
  endfacet
  facet normal 0.0980008 -0.995186 0
    outer loop
      vertex 14 -15 0
      vertex 14.1951 -14.9808 1
      vertex 14 -15 1
    endloop
  endfacet
  facet normal 0.0980008 -0.995186 0
    outer loop
      vertex 14.1951 -14.9808 1
      vertex 14 -15 0
      vertex 14.1951 -14.9808 0
    endloop
  endfacet
  facet normal 0.29031 -0.956933 0
    outer loop
      vertex 14.1951 -14.9808 0
      vertex 14.3827 -14.9239 1
      vertex 14.1951 -14.9808 1
    endloop
  endfacet
  facet normal 0.29031 -0.956933 0
    outer loop
      vertex 14.3827 -14.9239 1
      vertex 14.1951 -14.9808 0
      vertex 14.3827 -14.9239 0
    endloop
  endfacet
  facet normal 0 0 1
    outer loop
      vertex -14 15 1
      vertex 5 6 1
      vertex 5 14 1
    endloop
  endfacet
  facet normal 0 0 1
    outer loop
      vertex -14 15 1
      vertex 5 14 1
      vertex 5.01921 14.1951 1
    endloop
  endfacet
  facet normal 0 0 1
    outer loop
      vertex -14 15 1
      vertex 5.01921 14.1951 1
      vertex 5.07613 14.3827 1
    endloop
  endfacet
  facet normal 0 0 1
    outer loop
      vertex 5 6 1
      vertex -5.01921 -5.80492 1
      vertex -5 -6 1
    endloop
  endfacet
  facet normal 0 0 1
    outer loop
      vertex 5 6 1
      vertex -5.07613 -5.61731 1
      vertex -5.01921 -5.80492 1
    endloop
  endfacet
  facet normal 0 0 1
    outer loop
      vertex 5 6 1
      vertex -5.16853 -5.44443 1
      vertex -5.07613 -5.61731 1
    endloop
  endfacet
  facet normal 0 0 1
    outer loop
      vertex 5 6 1
      vertex -5.29289 -5.29289 1
      vertex -5.16853 -5.44443 1
    endloop
  endfacet
  facet normal 0 0 1
    outer loop
      vertex 5 6 1
      vertex -5.44443 -5.16853 1
      vertex -5.29289 -5.29289 1
    endloop
  endfacet
  facet normal 0 0 1
    outer loop
      vertex -14 15 1
      vertex 5.07613 14.3827 1
      vertex 5.16853 14.5556 1
    endloop
  endfacet
  facet normal 0 0 1
    outer loop
      vertex 5 6 1
      vertex -5.61731 -5.07613 1
      vertex -5.44443 -5.16853 1
    endloop
  endfacet
  facet normal 0 0 1
    outer loop
      vertex 5 6 1
      vertex -5.80492 -5.01921 1
      vertex -5.61731 -5.07613 1
    endloop
  endfacet
  facet normal 0 0 1
    outer loop
      vertex 5 6 1
      vertex -6 -5 1
      vertex -5.80492 -5.01921 1
    endloop
  endfacet
  facet normal -0 0 1
    outer loop
      vertex -14 15 1
      vertex 5.80492 14.9808 1
      vertex 6 15 1
    endloop
  endfacet
  facet normal 0 0 1
    outer loop
      vertex -14 15 1
      vertex 5.61731 14.9239 1
      vertex 5.80492 14.9808 1
    endloop
  endfacet
  facet normal 0 0 1
    outer loop
      vertex -14 15 1
      vertex 5.44443 14.8315 1
      vertex 5.61731 14.9239 1
    endloop
  endfacet
  facet normal 0 0 1
    outer loop
      vertex -14 15 1
      vertex 5.29289 14.7071 1
      vertex 5.44443 14.8315 1
    endloop
  endfacet
  facet normal 0 0 1
    outer loop
      vertex -14 15 1
      vertex 5.16853 14.5556 1
      vertex 5.29289 14.7071 1
    endloop
  endfacet
  facet normal 0 0 1
    outer loop
      vertex 5 6 1
      vertex -14 15 1
      vertex -6 -5 1
    endloop
  endfacet
  facet normal -0 0 1
    outer loop
      vertex -15 14 1
      vertex -6 -5 1
      vertex -14 15 1
    endloop
  endfacet
  facet normal 0 0 1
    outer loop
      vertex -15 14 1
      vertex -14 15 1
      vertex -14.1951 14.9808 1
    endloop
  endfacet
  facet normal 0 0 1
    outer loop
      vertex -6 -5 1
      vertex -15 14 1
      vertex -14 -5 1
    endloop
  endfacet
  facet normal 0 0 1
    outer loop
      vertex -15 14 1
      vertex -14.1951 14.9808 1
      vertex -14.3827 14.9239 1
    endloop
  endfacet
  facet normal 0 0 1
    outer loop
      vertex -14 -5 1
      vertex -15 14 1
      vertex -14.1951 -5.01921 1
    endloop
  endfacet
  facet normal 0 0 1
    outer loop
      vertex -15 14 1
      vertex -14.3827 14.9239 1
      vertex -14.5556 14.8315 1
    endloop
  endfacet
  facet normal 0 0 1
    outer loop
      vertex -14.1951 -5.01921 1
      vertex -15 14 1
      vertex -14.3827 -5.07613 1
    endloop
  endfacet
  facet normal 0 0 1
    outer loop
      vertex -15 14 1
      vertex -14.5556 14.8315 1
      vertex -14.7071 14.7071 1
    endloop
  endfacet
  facet normal 0 0 1
    outer loop
      vertex -14.3827 -5.07613 1
      vertex -15 14 1
      vertex -14.5556 -5.16853 1
    endloop
  endfacet
  facet normal 0 0 1
    outer loop
      vertex -15 14 1
      vertex -14.7071 14.7071 1
      vertex -14.8315 14.5556 1
    endloop
  endfacet
  facet normal 0 0 1
    outer loop
      vertex -14.5556 -5.16853 1
      vertex -15 14 1
      vertex -14.7071 -5.29289 1
    endloop
  endfacet
  facet normal 0 0 1
    outer loop
      vertex -15 14 1
      vertex -14.8315 14.5556 1
      vertex -14.9239 14.3827 1
    endloop
  endfacet
  facet normal 0 0 1
    outer loop
      vertex -14.7071 -5.29289 1
      vertex -15 14 1
      vertex -14.8315 -5.44443 1
    endloop
  endfacet
  facet normal 0 0 1
    outer loop
      vertex -15 14 1
      vertex -14.9239 14.3827 1
      vertex -14.9808 14.1951 1
    endloop
  endfacet
  facet normal 0 0 1
    outer loop
      vertex -14.8315 -5.44443 1
      vertex -15 14 1
      vertex -14.9239 -5.61731 1
    endloop
  endfacet
  facet normal 0 0 1
    outer loop
      vertex -14.9239 -5.61731 1
      vertex -15 14 1
      vertex -14.9808 -5.80492 1
    endloop
  endfacet
  facet normal 0 0 1
    outer loop
      vertex -14.9808 -5.80492 1
      vertex -15 14 1
      vertex -15 -6 1
    endloop
  endfacet
  facet normal -0 0 1
    outer loop
      vertex 14.9808 5.80492 1
      vertex 15 -14 1
      vertex 15 6 1
    endloop
  endfacet
  facet normal -0 0 1
    outer loop
      vertex 14.9239 5.61731 1
      vertex 15 -14 1
      vertex 14.9808 5.80492 1
    endloop
  endfacet
  facet normal -0 0 1
    outer loop
      vertex 14.8315 5.44443 1
      vertex 15 -14 1
      vertex 14.9239 5.61731 1
    endloop
  endfacet
  facet normal -0 0 1
    outer loop
      vertex 14.7071 5.29289 1
      vertex 15 -14 1
      vertex 14.8315 5.44443 1
    endloop
  endfacet
  facet normal -0 0 1
    outer loop
      vertex 14.5556 5.16853 1
      vertex 15 -14 1
      vertex 14.7071 5.29289 1
    endloop
  endfacet
  facet normal -0 0 1
    outer loop
      vertex 14.3827 5.07613 1
      vertex 15 -14 1
      vertex 14.5556 5.16853 1
    endloop
  endfacet
  facet normal -0 0 1
    outer loop
      vertex 14.1951 5.01921 1
      vertex 15 -14 1
      vertex 14.3827 5.07613 1
    endloop
  endfacet
  facet normal -0 0 1
    outer loop
      vertex 14 5 1
      vertex 15 -14 1
      vertex 14.1951 5.01921 1
    endloop
  endfacet
  facet normal -0 0 1
    outer loop
      vertex 6 5 1
      vertex 15 -14 1
      vertex 14 5 1
    endloop
  endfacet
  facet normal 0 -0 1
    outer loop
      vertex 14 -15 1
      vertex 15 -14 1
      vertex 6 5 1
    endloop
  endfacet
  facet normal 0 0 1
    outer loop
      vertex 15 -14 1
      vertex 14 -15 1
      vertex 14.9808 -14.1951 1
    endloop
  endfacet
  facet normal 0 0 1
    outer loop
      vertex 14.9808 -14.1951 1
      vertex 14 -15 1
      vertex 14.9239 -14.3827 1
    endloop
  endfacet
  facet normal 0 0 1
    outer loop
      vertex 14.8315 -14.5556 1
      vertex 14 -15 1
      vertex 14.7071 -14.7071 1
    endloop
  endfacet
  facet normal 0 0 1
    outer loop
      vertex 14.7071 -14.7071 1
      vertex 14 -15 1
      vertex 14.5556 -14.8315 1
    endloop
  endfacet
  facet normal 0 0 1
    outer loop
      vertex 14.5556 -14.8315 1
      vertex 14 -15 1
      vertex 14.3827 -14.9239 1
    endloop
  endfacet
  facet normal 0 0 1
    outer loop
      vertex 14.3827 -14.9239 1
      vertex 14 -15 1
      vertex 14.1951 -14.9808 1
    endloop
  endfacet
  facet normal 0 0 1
    outer loop
      vertex 14.9239 -14.3827 1
      vertex 14 -15 1
      vertex 14.8315 -14.5556 1
    endloop
  endfacet
  facet normal 0 0 1
    outer loop
      vertex -5 -6 1
      vertex 6 5 1
      vertex 5.80492 5.01921 1
    endloop
  endfacet
  facet normal 0 0 1
    outer loop
      vertex -5 -6 1
      vertex 5.80492 5.01921 1
      vertex 5.61731 5.07613 1
    endloop
  endfacet
  facet normal 0 0 1
    outer loop
      vertex -5 -6 1
      vertex 5.61731 5.07613 1
      vertex 5.44443 5.16853 1
    endloop
  endfacet
  facet normal 0 0 1
    outer loop
      vertex -5 -6 1
      vertex 5.44443 5.16853 1
      vertex 5.29289 5.29289 1
    endloop
  endfacet
  facet normal 0 0 1
    outer loop
      vertex -5 -6 1
      vertex 5.29289 5.29289 1
      vertex 5.16853 5.44443 1
    endloop
  endfacet
  facet normal 0 0 1
    outer loop
      vertex -5 -6 1
      vertex 5.16853 5.44443 1
      vertex 5.07613 5.61731 1
    endloop
  endfacet
  facet normal 0 0 1
    outer loop
      vertex -5 -6 1
      vertex 5.01921 5.80492 1
      vertex 5 6 1
    endloop
  endfacet
  facet normal 0 0 1
    outer loop
      vertex -5 -6 1
      vertex 5.07613 5.61731 1
      vertex 5.01921 5.80492 1
    endloop
  endfacet
  facet normal 0 0 1
    outer loop
      vertex 6 5 1
      vertex -5 -6 1
      vertex 14 -15 1
    endloop
  endfacet
  facet normal -0 0 1
    outer loop
      vertex -5 -14 1
      vertex 14 -15 1
      vertex -5 -6 1
    endloop
  endfacet
  facet normal -0 0 1
    outer loop
      vertex -5.01921 -14.1951 1
      vertex 14 -15 1
      vertex -5 -14 1
    endloop
  endfacet
  facet normal -0 0 1
    outer loop
      vertex -5.07613 -14.3827 1
      vertex 14 -15 1
      vertex -5.01921 -14.1951 1
    endloop
  endfacet
  facet normal -0 0 1
    outer loop
      vertex -5.16853 -14.5556 1
      vertex 14 -15 1
      vertex -5.07613 -14.3827 1
    endloop
  endfacet
  facet normal -0 0 1
    outer loop
      vertex -5.29289 -14.7071 1
      vertex 14 -15 1
      vertex -5.16853 -14.5556 1
    endloop
  endfacet
  facet normal -0 0 1
    outer loop
      vertex -5.44443 -14.8315 1
      vertex 14 -15 1
      vertex -5.29289 -14.7071 1
    endloop
  endfacet
  facet normal -0 0 1
    outer loop
      vertex -5.61731 -14.9239 1
      vertex 14 -15 1
      vertex -5.44443 -14.8315 1
    endloop
  endfacet
  facet normal -0 0 1
    outer loop
      vertex -5.80492 -14.9808 1
      vertex 14 -15 1
      vertex -5.61731 -14.9239 1
    endloop
  endfacet
  facet normal 0 0 1
    outer loop
      vertex 14 -15 1
      vertex -5.80492 -14.9808 1
      vertex -6 -15 1
    endloop
  endfacet
  facet normal -0.0980008 0.995186 0
    outer loop
      vertex -14 15 0
      vertex -14.1951 14.9808 1
      vertex -14 15 1
    endloop
  endfacet
  facet normal -0.0980008 0.995186 0
    outer loop
      vertex -14.1951 14.9808 1
      vertex -14 15 0
      vertex -14.1951 14.9808 0
    endloop
  endfacet
  facet normal -0.634386 -0.773017 0
    outer loop
      vertex -14.7071 -14.7071 0
      vertex -14.5556 -14.8315 30
      vertex -14.7071 -14.7071 30
    endloop
  endfacet
  facet normal -0.634386 -0.773017 -0
    outer loop
      vertex -14.5556 -14.8315 30
      vertex -14.7071 -14.7071 0
      vertex -14.5556 -14.8315 0
    endloop
  endfacet
  facet normal 0.0980008 0.995186 -0
    outer loop
      vertex 14.1951 14.9808 0
      vertex 14 15 30
      vertex 14.1951 14.9808 30
    endloop
  endfacet
  facet normal 0.0980008 0.995186 0
    outer loop
      vertex 14 15 30
      vertex 14.1951 14.9808 0
      vertex 14 15 0
    endloop
  endfacet
  facet normal -0.881922 0.471396 0
    outer loop
      vertex -14.9239 14.3827 0
      vertex -14.8315 14.5556 1
      vertex -14.8315 14.5556 0
    endloop
  endfacet
  facet normal -0.881922 0.471396 0
    outer loop
      vertex -14.8315 14.5556 1
      vertex -14.9239 14.3827 0
      vertex -14.9239 14.3827 1
    endloop
  endfacet
  facet normal -0.773017 -0.634386 0
    outer loop
      vertex -14.7071 -14.7071 0
      vertex -14.8315 -14.5556 30
      vertex -14.8315 -14.5556 0
    endloop
  endfacet
  facet normal -0.773017 -0.634386 0
    outer loop
      vertex -14.8315 -14.5556 30
      vertex -14.7071 -14.7071 0
      vertex -14.7071 -14.7071 30
    endloop
  endfacet
  facet normal 0 1 0
    outer loop
      vertex 14 15 30
      vertex 6 15 1
      vertex 6 15 30
    endloop
  endfacet
  facet normal 0 1 -0
    outer loop
      vertex 14 15 0
      vertex 6 15 1
      vertex 14 15 30
    endloop
  endfacet
  facet normal 0 1 0
    outer loop
      vertex -14 15 0
      vertex 6 15 1
      vertex 14 15 0
    endloop
  endfacet
  facet normal 0 1 0
    outer loop
      vertex 6 15 1
      vertex -14 15 0
      vertex -14 15 1
    endloop
  endfacet
  facet normal -1 0 0
    outer loop
      vertex -15 14 0
      vertex -15 -6 1
      vertex -15 14 1
    endloop
  endfacet
  facet normal -1 0 0
    outer loop
      vertex -15 -14 0
      vertex -15 -6 1
      vertex -15 14 0
    endloop
  endfacet
  facet normal -1 0 0
    outer loop
      vertex -15 -14 30
      vertex -15 -6 1
      vertex -15 -14 0
    endloop
  endfacet
  facet normal -1 0 0
    outer loop
      vertex -15 -6 1
      vertex -15 -14 30
      vertex -15 -6 30
    endloop
  endfacet
  facet normal -0.29031 -0.956933 0
    outer loop
      vertex -14.3827 -14.9239 0
      vertex -14.1951 -14.9808 30
      vertex -14.3827 -14.9239 30
    endloop
  endfacet
  facet normal -0.29031 -0.956933 -0
    outer loop
      vertex -14.1951 -14.9808 30
      vertex -14.3827 -14.9239 0
      vertex -14.1951 -14.9808 0
    endloop
  endfacet
  facet normal -0.471396 -0.881922 0
    outer loop
      vertex -14.5556 -14.8315 0
      vertex -14.3827 -14.9239 30
      vertex -14.5556 -14.8315 30
    endloop
  endfacet
  facet normal -0.471396 -0.881922 -0
    outer loop
      vertex -14.3827 -14.9239 30
      vertex -14.5556 -14.8315 0
      vertex -14.3827 -14.9239 0
    endloop
  endfacet
  facet normal 1 0 0
    outer loop
      vertex 15 6 1
      vertex 15 14 30
      vertex 15 6 30
    endloop
  endfacet
  facet normal 1 0 0
    outer loop
      vertex 15 14 30
      vertex 15 6 1
      vertex 15 14 0
    endloop
  endfacet
  facet normal 1 0 0
    outer loop
      vertex 15 -14 0
      vertex 15 6 1
      vertex 15 -14 1
    endloop
  endfacet
  facet normal 1 0 0
    outer loop
      vertex 15 6 1
      vertex 15 -14 0
      vertex 15 14 0
    endloop
  endfacet
  facet normal 0.773017 0.634386 0
    outer loop
      vertex 14.8315 14.5556 30
      vertex 14.7071 14.7071 0
      vertex 14.7071 14.7071 30
    endloop
  endfacet
  facet normal 0.773017 0.634386 0
    outer loop
      vertex 14.7071 14.7071 0
      vertex 14.8315 14.5556 30
      vertex 14.8315 14.5556 0
    endloop
  endfacet
  facet normal -0.995186 0.0980008 0
    outer loop
      vertex -15 14 0
      vertex -14.9808 14.1951 1
      vertex -14.9808 14.1951 0
    endloop
  endfacet
  facet normal -0.995186 0.0980008 0
    outer loop
      vertex -14.9808 14.1951 1
      vertex -15 14 0
      vertex -15 14 1
    endloop
  endfacet
  facet normal -0.956933 0.29031 0
    outer loop
      vertex -14.9808 14.1951 0
      vertex -14.9239 14.3827 1
      vertex -14.9239 14.3827 0
    endloop
  endfacet
  facet normal -0.956933 0.29031 0
    outer loop
      vertex -14.9239 14.3827 1
      vertex -14.9808 14.1951 0
      vertex -14.9808 14.1951 1
    endloop
  endfacet
  facet normal -0.471396 0.881922 0
    outer loop
      vertex -14.3827 14.9239 0
      vertex -14.5556 14.8315 1
      vertex -14.3827 14.9239 1
    endloop
  endfacet
  facet normal -0.471396 0.881922 0
    outer loop
      vertex -14.5556 14.8315 1
      vertex -14.3827 14.9239 0
      vertex -14.5556 14.8315 0
    endloop
  endfacet
  facet normal 0 0 -1
    outer loop
      vertex 14 -15 0
      vertex 15 -14 0
      vertex 14.9808 -14.1951 0
    endloop
  endfacet
  facet normal -0 0 -1
    outer loop
      vertex 15 -14 0
      vertex 14 -15 0
      vertex 15 14 0
    endloop
  endfacet
  facet normal 0 0 -1
    outer loop
      vertex 14 -15 0
      vertex 14.9808 -14.1951 0
      vertex 14.9239 -14.3827 0
    endloop
  endfacet
  facet normal 0 0 -1
    outer loop
      vertex 14 15 0
      vertex 15 14 0
      vertex 14 -15 0
    endloop
  endfacet
  facet normal 0 0 -1
    outer loop
      vertex 14 -15 0
      vertex 14.9239 -14.3827 0
      vertex 14.8315 -14.5556 0
    endloop
  endfacet
  facet normal 0 0 -1
    outer loop
      vertex 15 14 0
      vertex 14 15 0
      vertex 14.9808 14.1951 0
    endloop
  endfacet
  facet normal 0 0 -1
    outer loop
      vertex 14 -15 0
      vertex 14.8315 -14.5556 0
      vertex 14.7071 -14.7071 0
    endloop
  endfacet
  facet normal 0 0 -1
    outer loop
      vertex 14.9808 14.1951 0
      vertex 14 15 0
      vertex 14.9239 14.3827 0
    endloop
  endfacet
  facet normal 0 0 -1
    outer loop
      vertex 14 -15 0
      vertex 14.7071 -14.7071 0
      vertex 14.5556 -14.8315 0
    endloop
  endfacet
  facet normal 0 0 -1
    outer loop
      vertex 14.9239 14.3827 0
      vertex 14 15 0
      vertex 14.8315 14.5556 0
    endloop
  endfacet
  facet normal 0 0 -1
    outer loop
      vertex 14 -15 0
      vertex 14.5556 -14.8315 0
      vertex 14.3827 -14.9239 0
    endloop
  endfacet
  facet normal 0 0 -1
    outer loop
      vertex 14.8315 14.5556 0
      vertex 14 15 0
      vertex 14.7071 14.7071 0
    endloop
  endfacet
  facet normal 0 0 -1
    outer loop
      vertex 14 -15 0
      vertex 14.3827 -14.9239 0
      vertex 14.1951 -14.9808 0
    endloop
  endfacet
  facet normal 0 0 -1
    outer loop
      vertex 14.7071 14.7071 0
      vertex 14 15 0
      vertex 14.5556 14.8315 0
    endloop
  endfacet
  facet normal 0 0 -1
    outer loop
      vertex 14.5556 14.8315 0
      vertex 14 15 0
      vertex 14.3827 14.9239 0
    endloop
  endfacet
  facet normal 0 0 -1
    outer loop
      vertex 14.3827 14.9239 0
      vertex 14 15 0
      vertex 14.1951 14.9808 0
    endloop
  endfacet
  facet normal 0 0 -1
    outer loop
      vertex -14 -15 0
      vertex 14 15 0
      vertex 14 -15 0
    endloop
  endfacet
  facet normal 0 0 -1
    outer loop
      vertex -14 -15 0
      vertex -14 15 0
      vertex 14 15 0
    endloop
  endfacet
  facet normal 0 0 -1
    outer loop
      vertex -15 -14 0
      vertex -14 -15 0
      vertex -14.1951 -14.9808 0
    endloop
  endfacet
  facet normal 0 0 -1
    outer loop
      vertex -14 -15 0
      vertex -15 -14 0
      vertex -14 15 0
    endloop
  endfacet
  facet normal 0 0 -1
    outer loop
      vertex -15 -14 0
      vertex -14.1951 -14.9808 0
      vertex -14.3827 -14.9239 0
    endloop
  endfacet
  facet normal 0 0 -1
    outer loop
      vertex -15 14 0
      vertex -14 15 0
      vertex -15 -14 0
    endloop
  endfacet
  facet normal 0 0 -1
    outer loop
      vertex -15 -14 0
      vertex -14.3827 -14.9239 0
      vertex -14.5556 -14.8315 0
    endloop
  endfacet
  facet normal 0 0 -1
    outer loop
      vertex -14 15 0
      vertex -15 14 0
      vertex -14.1951 14.9808 0
    endloop
  endfacet
  facet normal 0 0 -1
    outer loop
      vertex -15 -14 0
      vertex -14.5556 -14.8315 0
      vertex -14.7071 -14.7071 0
    endloop
  endfacet
  facet normal 0 0 -1
    outer loop
      vertex -14.1951 14.9808 0
      vertex -15 14 0
      vertex -14.3827 14.9239 0
    endloop
  endfacet
  facet normal 0 0 -1
    outer loop
      vertex -15 -14 0
      vertex -14.7071 -14.7071 0
      vertex -14.8315 -14.5556 0
    endloop
  endfacet
  facet normal 0 0 -1
    outer loop
      vertex -14.3827 14.9239 0
      vertex -15 14 0
      vertex -14.5556 14.8315 0
    endloop
  endfacet
  facet normal 0 0 -1
    outer loop
      vertex -15 -14 0
      vertex -14.8315 -14.5556 0
      vertex -14.9239 -14.3827 0
    endloop
  endfacet
  facet normal 0 0 -1
    outer loop
      vertex -14.5556 14.8315 0
      vertex -15 14 0
      vertex -14.7071 14.7071 0
    endloop
  endfacet
  facet normal 0 0 -1
    outer loop
      vertex -15 -14 0
      vertex -14.9239 -14.3827 0
      vertex -14.9808 -14.1951 0
    endloop
  endfacet
  facet normal 0 0 -1
    outer loop
      vertex -14.7071 14.7071 0
      vertex -15 14 0
      vertex -14.8315 14.5556 0
    endloop
  endfacet
  facet normal 0 0 -1
    outer loop
      vertex -14.8315 14.5556 0
      vertex -15 14 0
      vertex -14.9239 14.3827 0
    endloop
  endfacet
  facet normal 0 0 -1
    outer loop
      vertex -14.9239 14.3827 0
      vertex -15 14 0
      vertex -14.9808 14.1951 0
    endloop
  endfacet
  facet normal -0.0980008 -0.995186 0
    outer loop
      vertex -14.1951 -14.9808 0
      vertex -14 -15 30
      vertex -14.1951 -14.9808 30
    endloop
  endfacet
  facet normal -0.0980008 -0.995186 -0
    outer loop
      vertex -14 -15 30
      vertex -14.1951 -14.9808 0
      vertex -14 -15 0
    endloop
  endfacet
  facet normal 0.29031 0.956933 -0
    outer loop
      vertex 14.3827 14.9239 0
      vertex 14.1951 14.9808 30
      vertex 14.3827 14.9239 30
    endloop
  endfacet
  facet normal 0.29031 0.956933 0
    outer loop
      vertex 14.1951 14.9808 30
      vertex 14.3827 14.9239 0
      vertex 14.1951 14.9808 0
    endloop
  endfacet
  facet normal 0.471396 0.881922 -0
    outer loop
      vertex 14.5556 14.8315 0
      vertex 14.3827 14.9239 30
      vertex 14.5556 14.8315 30
    endloop
  endfacet
  facet normal 0.471396 0.881922 0
    outer loop
      vertex 14.3827 14.9239 30
      vertex 14.5556 14.8315 0
      vertex 14.3827 14.9239 0
    endloop
  endfacet
  facet normal 0.634386 0.773017 -0
    outer loop
      vertex 14.7071 14.7071 0
      vertex 14.5556 14.8315 30
      vertex 14.7071 14.7071 30
    endloop
  endfacet
  facet normal 0.634386 0.773017 0
    outer loop
      vertex 14.5556 14.8315 30
      vertex 14.7071 14.7071 0
      vertex 14.5556 14.8315 0
    endloop
  endfacet
  facet normal -0.29031 0.956933 0
    outer loop
      vertex -14.1951 14.9808 0
      vertex -14.3827 14.9239 1
      vertex -14.1951 14.9808 1
    endloop
  endfacet
  facet normal -0.29031 0.956933 0
    outer loop
      vertex -14.3827 14.9239 1
      vertex -14.1951 14.9808 0
      vertex -14.3827 14.9239 0
    endloop
  endfacet
  facet normal -0.881922 -0.471396 0
    outer loop
      vertex -14.8315 -14.5556 0
      vertex -14.9239 -14.3827 30
      vertex -14.9239 -14.3827 0
    endloop
  endfacet
  facet normal -0.881922 -0.471396 0
    outer loop
      vertex -14.9239 -14.3827 30
      vertex -14.8315 -14.5556 0
      vertex -14.8315 -14.5556 30
    endloop
  endfacet
  facet normal 0.995186 -0.0980008 0
    outer loop
      vertex 14.9808 -14.1951 1
      vertex 15 -14 0
      vertex 15 -14 1
    endloop
  endfacet
  facet normal 0.995186 -0.0980008 0
    outer loop
      vertex 15 -14 0
      vertex 14.9808 -14.1951 1
      vertex 14.9808 -14.1951 0
    endloop
  endfacet
  facet normal 0.773017 -0.634386 0
    outer loop
      vertex 14.7071 -14.7071 1
      vertex 14.8315 -14.5556 0
      vertex 14.8315 -14.5556 1
    endloop
  endfacet
  facet normal 0.773017 -0.634386 0
    outer loop
      vertex 14.8315 -14.5556 0
      vertex 14.7071 -14.7071 1
      vertex 14.7071 -14.7071 0
    endloop
  endfacet
  facet normal -0.773017 0.634386 0
    outer loop
      vertex -14.8315 14.5556 0
      vertex -14.7071 14.7071 1
      vertex -14.7071 14.7071 0
    endloop
  endfacet
  facet normal -0.773017 0.634386 0
    outer loop
      vertex -14.7071 14.7071 1
      vertex -14.8315 14.5556 0
      vertex -14.8315 14.5556 1
    endloop
  endfacet
  facet normal -0.634386 0.773017 0
    outer loop
      vertex -14.5556 14.8315 0
      vertex -14.7071 14.7071 1
      vertex -14.5556 14.8315 1
    endloop
  endfacet
  facet normal -0.634386 0.773017 0
    outer loop
      vertex -14.7071 14.7071 1
      vertex -14.5556 14.8315 0
      vertex -14.7071 14.7071 0
    endloop
  endfacet
  facet normal -0.956933 -0.29031 0
    outer loop
      vertex -14.9239 -14.3827 0
      vertex -14.9808 -14.1951 30
      vertex -14.9808 -14.1951 0
    endloop
  endfacet
  facet normal -0.956933 -0.29031 0
    outer loop
      vertex -14.9808 -14.1951 30
      vertex -14.9239 -14.3827 0
      vertex -14.9239 -14.3827 30
    endloop
  endfacet
  facet normal -0.995186 -0.0980008 0
    outer loop
      vertex -14.9808 -14.1951 0
      vertex -15 -14 30
      vertex -15 -14 0
    endloop
  endfacet
  facet normal -0.995186 -0.0980008 0
    outer loop
      vertex -15 -14 30
      vertex -14.9808 -14.1951 0
      vertex -14.9808 -14.1951 30
    endloop
  endfacet
  facet normal 0.881922 0.471396 0
    outer loop
      vertex 14.9239 14.3827 30
      vertex 14.8315 14.5556 0
      vertex 14.8315 14.5556 30
    endloop
  endfacet
  facet normal 0.881922 0.471396 0
    outer loop
      vertex 14.8315 14.5556 0
      vertex 14.9239 14.3827 30
      vertex 14.9239 14.3827 0
    endloop
  endfacet
  facet normal 0.956933 0.29031 0
    outer loop
      vertex 14.9808 14.1951 30
      vertex 14.9239 14.3827 0
      vertex 14.9239 14.3827 30
    endloop
  endfacet
  facet normal 0.956933 0.29031 0
    outer loop
      vertex 14.9239 14.3827 0
      vertex 14.9808 14.1951 30
      vertex 14.9808 14.1951 0
    endloop
  endfacet
  facet normal 0.995186 0.0980008 0
    outer loop
      vertex 15 14 30
      vertex 14.9808 14.1951 0
      vertex 14.9808 14.1951 30
    endloop
  endfacet
  facet normal 0.995186 0.0980008 0
    outer loop
      vertex 14.9808 14.1951 0
      vertex 15 14 30
      vertex 15 14 0
    endloop
  endfacet
  facet normal 0.634386 -0.773017 0
    outer loop
      vertex 14.5556 -14.8315 0
      vertex 14.7071 -14.7071 1
      vertex 14.5556 -14.8315 1
    endloop
  endfacet
  facet normal 0.634386 -0.773017 0
    outer loop
      vertex 14.7071 -14.7071 1
      vertex 14.5556 -14.8315 0
      vertex 14.7071 -14.7071 0
    endloop
  endfacet
  facet normal 0.471396 -0.881922 0
    outer loop
      vertex 14.3827 -14.9239 0
      vertex 14.5556 -14.8315 1
      vertex 14.3827 -14.9239 1
    endloop
  endfacet
  facet normal 0.471396 -0.881922 0
    outer loop
      vertex 14.5556 -14.8315 1
      vertex 14.3827 -14.9239 0
      vertex 14.5556 -14.8315 0
    endloop
  endfacet
  facet normal 0.956933 -0.29031 0
    outer loop
      vertex 14.9239 -14.3827 1
      vertex 14.9808 -14.1951 0
      vertex 14.9808 -14.1951 1
    endloop
  endfacet
  facet normal 0.956933 -0.29031 0
    outer loop
      vertex 14.9808 -14.1951 0
      vertex 14.9239 -14.3827 1
      vertex 14.9239 -14.3827 0
    endloop
  endfacet
  facet normal 0.881922 -0.471396 0
    outer loop
      vertex 14.8315 -14.5556 1
      vertex 14.9239 -14.3827 0
      vertex 14.9239 -14.3827 1
    endloop
  endfacet
  facet normal 0.881922 -0.471396 0
    outer loop
      vertex 14.9239 -14.3827 0
      vertex 14.8315 -14.5556 1
      vertex 14.8315 -14.5556 0
    endloop
  endfacet
  facet normal 0 0 1
    outer loop
      vertex 14 15 30
      vertex 15 14 30
      vertex 14.9808 14.1951 30
    endloop
  endfacet
  facet normal 0 0 1
    outer loop
      vertex 15 14 30
      vertex 14 15 30
      vertex 15 6 30
    endloop
  endfacet
  facet normal 0 0 1
    outer loop
      vertex 14 15 30
      vertex 14.9808 14.1951 30
      vertex 14.9239 14.3827 30
    endloop
  endfacet
  facet normal 0 0 1
    outer loop
      vertex 14 5 30
      vertex 15 6 30
      vertex 14 15 30
    endloop
  endfacet
  facet normal 0 0 1
    outer loop
      vertex 14 15 30
      vertex 14.9239 14.3827 30
      vertex 14.8315 14.5556 30
    endloop
  endfacet
  facet normal 0 0 1
    outer loop
      vertex 15 6 30
      vertex 14 5 30
      vertex 14.9808 5.80492 30
    endloop
  endfacet
  facet normal 0 0 1
    outer loop
      vertex 14 15 30
      vertex 14.8315 14.5556 30
      vertex 14.7071 14.7071 30
    endloop
  endfacet
  facet normal 0 0 1
    outer loop
      vertex 14.9808 5.80492 30
      vertex 14 5 30
      vertex 14.9239 5.61731 30
    endloop
  endfacet
  facet normal 0 0 1
    outer loop
      vertex 14 15 30
      vertex 14.7071 14.7071 30
      vertex 14.5556 14.8315 30
    endloop
  endfacet
  facet normal 0 0 1
    outer loop
      vertex 14.9239 5.61731 30
      vertex 14 5 30
      vertex 14.8315 5.44443 30
    endloop
  endfacet
  facet normal 0 0 1
    outer loop
      vertex 14 15 30
      vertex 14.5556 14.8315 30
      vertex 14.3827 14.9239 30
    endloop
  endfacet
  facet normal 0 0 1
    outer loop
      vertex 14.8315 5.44443 30
      vertex 14 5 30
      vertex 14.7071 5.29289 30
    endloop
  endfacet
  facet normal 0 0 1
    outer loop
      vertex 14 15 30
      vertex 14.3827 14.9239 30
      vertex 14.1951 14.9808 30
    endloop
  endfacet
  facet normal 0 0 1
    outer loop
      vertex 14.7071 5.29289 30
      vertex 14 5 30
      vertex 14.5556 5.16853 30
    endloop
  endfacet
  facet normal 0 0 1
    outer loop
      vertex 14.5556 5.16853 30
      vertex 14 5 30
      vertex 14.3827 5.07613 30
    endloop
  endfacet
  facet normal 0 0 1
    outer loop
      vertex 14.3827 5.07613 30
      vertex 14 5 30
      vertex 14.1951 5.01921 30
    endloop
  endfacet
  facet normal -0 0 1
    outer loop
      vertex 6 15 30
      vertex 14 5 30
      vertex 14 15 30
    endloop
  endfacet
  facet normal 0 0 1
    outer loop
      vertex 6 15 30
      vertex 6 5 30
      vertex 14 5 30
    endloop
  endfacet
  facet normal 0 0 1
    outer loop
      vertex 5 14 30
      vertex 6 15 30
      vertex 5.80492 14.9808 30
    endloop
  endfacet
  facet normal 0 0 1
    outer loop
      vertex 6 15 30
      vertex 5 14 30
      vertex 6 5 30
    endloop
  endfacet
  facet normal 0 0 1
    outer loop
      vertex 5 14 30
      vertex 5.80492 14.9808 30
      vertex 5.61731 14.9239 30
    endloop
  endfacet
  facet normal -0 0 1
    outer loop
      vertex 5 6 30
      vertex 6 5 30
      vertex 5 14 30
    endloop
  endfacet
  facet normal 0 0 1
    outer loop
      vertex 5 14 30
      vertex 5.61731 14.9239 30
      vertex 5.44443 14.8315 30
    endloop
  endfacet
  facet normal 0 0 1
    outer loop
      vertex 6 5 30
      vertex 5 6 30
      vertex 5.80492 5.01921 30
    endloop
  endfacet
  facet normal 0 0 1
    outer loop
      vertex 5 14 30
      vertex 5.44443 14.8315 30
      vertex 5.29289 14.7071 30
    endloop
  endfacet
  facet normal 0 0 1
    outer loop
      vertex 5.80492 5.01921 30
      vertex 5 6 30
      vertex 5.61731 5.07613 30
    endloop
  endfacet
  facet normal 0 0 1
    outer loop
      vertex 5 14 30
      vertex 5.29289 14.7071 30
      vertex 5.16853 14.5556 30
    endloop
  endfacet
  facet normal 0 0 1
    outer loop
      vertex 5.61731 5.07613 30
      vertex 5 6 30
      vertex 5.44443 5.16853 30
    endloop
  endfacet
  facet normal 0 0 1
    outer loop
      vertex 5 14 30
      vertex 5.16853 14.5556 30
      vertex 5.07613 14.3827 30
    endloop
  endfacet
  facet normal 0 0 1
    outer loop
      vertex 5.44443 5.16853 30
      vertex 5 6 30
      vertex 5.29289 5.29289 30
    endloop
  endfacet
  facet normal 0 0 1
    outer loop
      vertex 5 14 30
      vertex 5.07613 14.3827 30
      vertex 5.01921 14.1951 30
    endloop
  endfacet
  facet normal 0 0 1
    outer loop
      vertex 5.29289 5.29289 30
      vertex 5 6 30
      vertex 5.16853 5.44443 30
    endloop
  endfacet
  facet normal 0 0 1
    outer loop
      vertex 5.16853 5.44443 30
      vertex 5 6 30
      vertex 5.07613 5.61731 30
    endloop
  endfacet
  facet normal 0 0 1
    outer loop
      vertex 5.07613 5.61731 30
      vertex 5 6 30
      vertex 5.01921 5.80492 30
    endloop
  endfacet
  facet normal 0 0 1
    outer loop
      vertex -6 -5 30
      vertex -5 -6 30
      vertex -5.01921 -5.80492 30
    endloop
  endfacet
  facet normal 0 0 1
    outer loop
      vertex -5 -6 30
      vertex -6 -5 30
      vertex -5 -14 30
    endloop
  endfacet
  facet normal 0 0 1
    outer loop
      vertex -6 -5 30
      vertex -5.01921 -5.80492 30
      vertex -5.07613 -5.61731 30
    endloop
  endfacet
  facet normal 0 0 1
    outer loop
      vertex -6 -15 30
      vertex -5 -14 30
      vertex -6 -5 30
    endloop
  endfacet
  facet normal 0 0 1
    outer loop
      vertex -6 -5 30
      vertex -5.07613 -5.61731 30
      vertex -5.16853 -5.44443 30
    endloop
  endfacet
  facet normal 0 0 1
    outer loop
      vertex -5 -14 30
      vertex -6 -15 30
      vertex -5.01921 -14.1951 30
    endloop
  endfacet
  facet normal 0 0 1
    outer loop
      vertex -6 -5 30
      vertex -5.16853 -5.44443 30
      vertex -5.29289 -5.29289 30
    endloop
  endfacet
  facet normal 0 0 1
    outer loop
      vertex -5.01921 -14.1951 30
      vertex -6 -15 30
      vertex -5.07613 -14.3827 30
    endloop
  endfacet
  facet normal 0 0 1
    outer loop
      vertex -6 -5 30
      vertex -5.29289 -5.29289 30
      vertex -5.44443 -5.16853 30
    endloop
  endfacet
  facet normal 0 0 1
    outer loop
      vertex -5.07613 -14.3827 30
      vertex -6 -15 30
      vertex -5.16853 -14.5556 30
    endloop
  endfacet
  facet normal 0 0 1
    outer loop
      vertex -6 -5 30
      vertex -5.44443 -5.16853 30
      vertex -5.61731 -5.07613 30
    endloop
  endfacet
  facet normal 0 0 1
    outer loop
      vertex -5.16853 -14.5556 30
      vertex -6 -15 30
      vertex -5.29289 -14.7071 30
    endloop
  endfacet
  facet normal 0 0 1
    outer loop
      vertex -6 -5 30
      vertex -5.61731 -5.07613 30
      vertex -5.80492 -5.01921 30
    endloop
  endfacet
  facet normal 0 0 1
    outer loop
      vertex -5.29289 -14.7071 30
      vertex -6 -15 30
      vertex -5.44443 -14.8315 30
    endloop
  endfacet
  facet normal 0 0 1
    outer loop
      vertex -5.44443 -14.8315 30
      vertex -6 -15 30
      vertex -5.61731 -14.9239 30
    endloop
  endfacet
  facet normal 0 0 1
    outer loop
      vertex -5.61731 -14.9239 30
      vertex -6 -15 30
      vertex -5.80492 -14.9808 30
    endloop
  endfacet
  facet normal -0 0 1
    outer loop
      vertex -14 -5 30
      vertex -6 -15 30
      vertex -6 -5 30
    endloop
  endfacet
  facet normal 0 0 1
    outer loop
      vertex -14 -5 30
      vertex -14 -15 30
      vertex -6 -15 30
    endloop
  endfacet
  facet normal 0 0 1
    outer loop
      vertex -15 -6 30
      vertex -14 -5 30
      vertex -14.1951 -5.01921 30
    endloop
  endfacet
  facet normal 0 0 1
    outer loop
      vertex -14 -5 30
      vertex -15 -6 30
      vertex -14 -15 30
    endloop
  endfacet
  facet normal 0 0 1
    outer loop
      vertex -15 -6 30
      vertex -14.1951 -5.01921 30
      vertex -14.3827 -5.07613 30
    endloop
  endfacet
  facet normal -0 0 1
    outer loop
      vertex -15 -14 30
      vertex -14 -15 30
      vertex -15 -6 30
    endloop
  endfacet
  facet normal 0 0 1
    outer loop
      vertex -15 -6 30
      vertex -14.3827 -5.07613 30
      vertex -14.5556 -5.16853 30
    endloop
  endfacet
  facet normal 0 0 1
    outer loop
      vertex -14 -15 30
      vertex -15 -14 30
      vertex -14.1951 -14.9808 30
    endloop
  endfacet
  facet normal 0 0 1
    outer loop
      vertex -15 -6 30
      vertex -14.5556 -5.16853 30
      vertex -14.7071 -5.29289 30
    endloop
  endfacet
  facet normal 0 0 1
    outer loop
      vertex -14.1951 -14.9808 30
      vertex -15 -14 30
      vertex -14.3827 -14.9239 30
    endloop
  endfacet
  facet normal 0 0 1
    outer loop
      vertex -15 -6 30
      vertex -14.7071 -5.29289 30
      vertex -14.8315 -5.44443 30
    endloop
  endfacet
  facet normal 0 0 1
    outer loop
      vertex -14.3827 -14.9239 30
      vertex -15 -14 30
      vertex -14.5556 -14.8315 30
    endloop
  endfacet
  facet normal 0 0 1
    outer loop
      vertex -15 -6 30
      vertex -14.8315 -5.44443 30
      vertex -14.9239 -5.61731 30
    endloop
  endfacet
  facet normal 0 0 1
    outer loop
      vertex -14.5556 -14.8315 30
      vertex -15 -14 30
      vertex -14.7071 -14.7071 30
    endloop
  endfacet
  facet normal 0 0 1
    outer loop
      vertex -15 -6 30
      vertex -14.9239 -5.61731 30
      vertex -14.9808 -5.80492 30
    endloop
  endfacet
  facet normal 0 0 1
    outer loop
      vertex -14.7071 -14.7071 30
      vertex -15 -14 30
      vertex -14.8315 -14.5556 30
    endloop
  endfacet
  facet normal 0 0 1
    outer loop
      vertex -14.8315 -14.5556 30
      vertex -15 -14 30
      vertex -14.9239 -14.3827 30
    endloop
  endfacet
  facet normal 0 0 1
    outer loop
      vertex -14.9239 -14.3827 30
      vertex -15 -14 30
      vertex -14.9808 -14.1951 30
    endloop
  endfacet
  facet normal 0.29031 -0.956933 0
    outer loop
      vertex 14.1951 5.01921 1
      vertex 14.3827 5.07613 30
      vertex 14.1951 5.01921 30
    endloop
  endfacet
  facet normal 0.29031 -0.956933 0
    outer loop
      vertex 14.3827 5.07613 30
      vertex 14.1951 5.01921 1
      vertex 14.3827 5.07613 1
    endloop
  endfacet
  facet normal 0.471396 -0.881922 0
    outer loop
      vertex 14.3827 5.07613 1
      vertex 14.5556 5.16853 30
      vertex 14.3827 5.07613 30
    endloop
  endfacet
  facet normal 0.471396 -0.881922 0
    outer loop
      vertex 14.5556 5.16853 30
      vertex 14.3827 5.07613 1
      vertex 14.5556 5.16853 1
    endloop
  endfacet
  facet normal 0.634386 -0.773017 0
    outer loop
      vertex 14.5556 5.16853 1
      vertex 14.7071 5.29289 30
      vertex 14.5556 5.16853 30
    endloop
  endfacet
  facet normal 0.634386 -0.773017 0
    outer loop
      vertex 14.7071 5.29289 30
      vertex 14.5556 5.16853 1
      vertex 14.7071 5.29289 1
    endloop
  endfacet
  facet normal 0.773017 -0.634386 0
    outer loop
      vertex 14.7071 5.29289 30
      vertex 14.8315 5.44443 1
      vertex 14.8315 5.44443 30
    endloop
  endfacet
  facet normal 0.773017 -0.634386 0
    outer loop
      vertex 14.8315 5.44443 1
      vertex 14.7071 5.29289 30
      vertex 14.7071 5.29289 1
    endloop
  endfacet
  facet normal 0.881922 -0.471396 0
    outer loop
      vertex 14.8315 5.44443 30
      vertex 14.9239 5.61731 1
      vertex 14.9239 5.61731 30
    endloop
  endfacet
  facet normal 0.881922 -0.471396 0
    outer loop
      vertex 14.9239 5.61731 1
      vertex 14.8315 5.44443 30
      vertex 14.8315 5.44443 1
    endloop
  endfacet
  facet normal 0.956933 -0.29031 0
    outer loop
      vertex 14.9239 5.61731 30
      vertex 14.9808 5.80492 1
      vertex 14.9808 5.80492 30
    endloop
  endfacet
  facet normal 0.956933 -0.29031 0
    outer loop
      vertex 14.9808 5.80492 1
      vertex 14.9239 5.61731 30
      vertex 14.9239 5.61731 1
    endloop
  endfacet
  facet normal 0.995186 -0.0980008 0
    outer loop
      vertex 14.9808 5.80492 30
      vertex 15 6 1
      vertex 15 6 30
    endloop
  endfacet
  facet normal 0.995186 -0.0980008 0
    outer loop
      vertex 15 6 1
      vertex 14.9808 5.80492 30
      vertex 14.9808 5.80492 1
    endloop
  endfacet
  facet normal -0.0980008 0.995186 0
    outer loop
      vertex 6 15 1
      vertex 5.80492 14.9808 30
      vertex 6 15 30
    endloop
  endfacet
  facet normal -0.0980008 0.995186 0
    outer loop
      vertex 5.80492 14.9808 30
      vertex 6 15 1
      vertex 5.80492 14.9808 1
    endloop
  endfacet
  facet normal -0.29031 0.956933 0
    outer loop
      vertex 5.80492 14.9808 1
      vertex 5.61731 14.9239 30
      vertex 5.80492 14.9808 30
    endloop
  endfacet
  facet normal -0.29031 0.956933 0
    outer loop
      vertex 5.61731 14.9239 30
      vertex 5.80492 14.9808 1
      vertex 5.61731 14.9239 1
    endloop
  endfacet
  facet normal -0.471396 0.881922 0
    outer loop
      vertex 5.61731 14.9239 1
      vertex 5.44443 14.8315 30
      vertex 5.61731 14.9239 30
    endloop
  endfacet
  facet normal -0.471396 0.881922 0
    outer loop
      vertex 5.44443 14.8315 30
      vertex 5.61731 14.9239 1
      vertex 5.44443 14.8315 1
    endloop
  endfacet
  facet normal -0.634386 0.773017 0
    outer loop
      vertex 5.44443 14.8315 1
      vertex 5.29289 14.7071 30
      vertex 5.44443 14.8315 30
    endloop
  endfacet
  facet normal -0.634386 0.773017 0
    outer loop
      vertex 5.29289 14.7071 30
      vertex 5.44443 14.8315 1
      vertex 5.29289 14.7071 1
    endloop
  endfacet
  facet normal -0.773017 0.634386 0
    outer loop
      vertex 5.16853 14.5556 1
      vertex 5.29289 14.7071 30
      vertex 5.29289 14.7071 1
    endloop
  endfacet
  facet normal -0.773017 0.634386 0
    outer loop
      vertex 5.29289 14.7071 30
      vertex 5.16853 14.5556 1
      vertex 5.16853 14.5556 30
    endloop
  endfacet
  facet normal -0.881922 0.471396 0
    outer loop
      vertex 5.07613 14.3827 1
      vertex 5.16853 14.5556 30
      vertex 5.16853 14.5556 1
    endloop
  endfacet
  facet normal -0.881922 0.471396 0
    outer loop
      vertex 5.16853 14.5556 30
      vertex 5.07613 14.3827 1
      vertex 5.07613 14.3827 30
    endloop
  endfacet
  facet normal -0.956933 0.29031 0
    outer loop
      vertex 5.01921 14.1951 1
      vertex 5.07613 14.3827 30
      vertex 5.07613 14.3827 1
    endloop
  endfacet
  facet normal -0.956933 0.29031 0
    outer loop
      vertex 5.07613 14.3827 30
      vertex 5.01921 14.1951 1
      vertex 5.01921 14.1951 30
    endloop
  endfacet
  facet normal -0.995186 0.0980008 0
    outer loop
      vertex 5 14 1
      vertex 5.01921 14.1951 30
      vertex 5.01921 14.1951 1
    endloop
  endfacet
  facet normal -0.995186 0.0980008 0
    outer loop
      vertex 5.01921 14.1951 30
      vertex 5 14 1
      vertex 5 14 30
    endloop
  endfacet
  facet normal -1 0 0
    outer loop
      vertex 5 6 1
      vertex 5 14 30
      vertex 5 14 1
    endloop
  endfacet
  facet normal -1 -0 0
    outer loop
      vertex 5 14 30
      vertex 5 6 1
      vertex 5 6 30
    endloop
  endfacet
  facet normal -0.995186 -0.0980008 0
    outer loop
      vertex 5.01921 5.80492 1
      vertex 5 6 30
      vertex 5 6 1
    endloop
  endfacet
  facet normal -0.995186 -0.0980008 0
    outer loop
      vertex 5 6 30
      vertex 5.01921 5.80492 1
      vertex 5.01921 5.80492 30
    endloop
  endfacet
  facet normal -0.956933 -0.29031 0
    outer loop
      vertex 5.07613 5.61731 1
      vertex 5.01921 5.80492 30
      vertex 5.01921 5.80492 1
    endloop
  endfacet
  facet normal -0.956933 -0.29031 0
    outer loop
      vertex 5.01921 5.80492 30
      vertex 5.07613 5.61731 1
      vertex 5.07613 5.61731 30
    endloop
  endfacet
  facet normal -0.881922 -0.471396 0
    outer loop
      vertex 5.16853 5.44443 1
      vertex 5.07613 5.61731 30
      vertex 5.07613 5.61731 1
    endloop
  endfacet
  facet normal -0.881922 -0.471396 0
    outer loop
      vertex 5.07613 5.61731 30
      vertex 5.16853 5.44443 1
      vertex 5.16853 5.44443 30
    endloop
  endfacet
  facet normal -0.773017 -0.634386 0
    outer loop
      vertex 5.29289 5.29289 1
      vertex 5.16853 5.44443 30
      vertex 5.16853 5.44443 1
    endloop
  endfacet
  facet normal -0.773017 -0.634386 0
    outer loop
      vertex 5.16853 5.44443 30
      vertex 5.29289 5.29289 1
      vertex 5.29289 5.29289 30
    endloop
  endfacet
  facet normal -0.634386 -0.773017 0
    outer loop
      vertex 5.29289 5.29289 1
      vertex 5.44443 5.16853 30
      vertex 5.29289 5.29289 30
    endloop
  endfacet
  facet normal -0.634386 -0.773017 -0
    outer loop
      vertex 5.44443 5.16853 30
      vertex 5.29289 5.29289 1
      vertex 5.44443 5.16853 1
    endloop
  endfacet
  facet normal -0.471396 -0.881922 0
    outer loop
      vertex 5.44443 5.16853 1
      vertex 5.61731 5.07613 30
      vertex 5.44443 5.16853 30
    endloop
  endfacet
  facet normal -0.471396 -0.881922 -0
    outer loop
      vertex 5.61731 5.07613 30
      vertex 5.44443 5.16853 1
      vertex 5.61731 5.07613 1
    endloop
  endfacet
  facet normal -0.29031 -0.956933 0
    outer loop
      vertex 5.61731 5.07613 1
      vertex 5.80492 5.01921 30
      vertex 5.61731 5.07613 30
    endloop
  endfacet
  facet normal -0.29031 -0.956933 -0
    outer loop
      vertex 5.80492 5.01921 30
      vertex 5.61731 5.07613 1
      vertex 5.80492 5.01921 1
    endloop
  endfacet
  facet normal -0.0980008 -0.995186 0
    outer loop
      vertex 5.80492 5.01921 1
      vertex 6 5 30
      vertex 5.80492 5.01921 30
    endloop
  endfacet
  facet normal -0.0980008 -0.995186 -0
    outer loop
      vertex 6 5 30
      vertex 5.80492 5.01921 1
      vertex 6 5 1
    endloop
  endfacet
  facet normal 0 -1 0
    outer loop
      vertex 6 5 1
      vertex 14 5 30
      vertex 6 5 30
    endloop
  endfacet
  facet normal 0 -1 -0
    outer loop
      vertex 14 5 30
      vertex 6 5 1
      vertex 14 5 1
    endloop
  endfacet
  facet normal 0.0980008 -0.995186 0
    outer loop
      vertex 14 5 1
      vertex 14.1951 5.01921 30
      vertex 14 5 30
    endloop
  endfacet
  facet normal 0.0980008 -0.995186 0
    outer loop
      vertex 14.1951 5.01921 30
      vertex 14 5 1
      vertex 14.1951 5.01921 1
    endloop
  endfacet
  facet normal 0.29031 -0.956933 0
    outer loop
      vertex -5.80492 -14.9808 1
      vertex -5.61731 -14.9239 30
      vertex -5.80492 -14.9808 30
    endloop
  endfacet
  facet normal 0.29031 -0.956933 0
    outer loop
      vertex -5.61731 -14.9239 30
      vertex -5.80492 -14.9808 1
      vertex -5.61731 -14.9239 1
    endloop
  endfacet
  facet normal 0.471396 -0.881922 0
    outer loop
      vertex -5.61731 -14.9239 1
      vertex -5.44443 -14.8315 30
      vertex -5.61731 -14.9239 30
    endloop
  endfacet
  facet normal 0.471396 -0.881922 0
    outer loop
      vertex -5.44443 -14.8315 30
      vertex -5.61731 -14.9239 1
      vertex -5.44443 -14.8315 1
    endloop
  endfacet
  facet normal 0.634386 -0.773017 0
    outer loop
      vertex -5.44443 -14.8315 1
      vertex -5.29289 -14.7071 30
      vertex -5.44443 -14.8315 30
    endloop
  endfacet
  facet normal 0.634386 -0.773017 0
    outer loop
      vertex -5.29289 -14.7071 30
      vertex -5.44443 -14.8315 1
      vertex -5.29289 -14.7071 1
    endloop
  endfacet
  facet normal 0.773017 -0.634386 0
    outer loop
      vertex -5.29289 -14.7071 30
      vertex -5.16853 -14.5556 1
      vertex -5.16853 -14.5556 30
    endloop
  endfacet
  facet normal 0.773017 -0.634386 0
    outer loop
      vertex -5.16853 -14.5556 1
      vertex -5.29289 -14.7071 30
      vertex -5.29289 -14.7071 1
    endloop
  endfacet
  facet normal 0.881922 -0.471396 0
    outer loop
      vertex -5.16853 -14.5556 30
      vertex -5.07613 -14.3827 1
      vertex -5.07613 -14.3827 30
    endloop
  endfacet
  facet normal 0.881922 -0.471396 0
    outer loop
      vertex -5.07613 -14.3827 1
      vertex -5.16853 -14.5556 30
      vertex -5.16853 -14.5556 1
    endloop
  endfacet
  facet normal 0.956933 -0.29031 0
    outer loop
      vertex -5.07613 -14.3827 30
      vertex -5.01921 -14.1951 1
      vertex -5.01921 -14.1951 30
    endloop
  endfacet
  facet normal 0.956933 -0.29031 0
    outer loop
      vertex -5.01921 -14.1951 1
      vertex -5.07613 -14.3827 30
      vertex -5.07613 -14.3827 1
    endloop
  endfacet
  facet normal 0.995186 -0.0980008 0
    outer loop
      vertex -5.01921 -14.1951 30
      vertex -5 -14 1
      vertex -5 -14 30
    endloop
  endfacet
  facet normal 0.995186 -0.0980008 0
    outer loop
      vertex -5 -14 1
      vertex -5.01921 -14.1951 30
      vertex -5.01921 -14.1951 1
    endloop
  endfacet
  facet normal 1 -0 0
    outer loop
      vertex -5 -14 30
      vertex -5 -6 1
      vertex -5 -6 30
    endloop
  endfacet
  facet normal 1 0 0
    outer loop
      vertex -5 -6 1
      vertex -5 -14 30
      vertex -5 -14 1
    endloop
  endfacet
  facet normal 0.995186 0.0980008 0
    outer loop
      vertex -5 -6 30
      vertex -5.01921 -5.80492 1
      vertex -5.01921 -5.80492 30
    endloop
  endfacet
  facet normal 0.995186 0.0980008 0
    outer loop
      vertex -5.01921 -5.80492 1
      vertex -5 -6 30
      vertex -5 -6 1
    endloop
  endfacet
  facet normal 0.956933 0.29031 0
    outer loop
      vertex -5.01921 -5.80492 30
      vertex -5.07613 -5.61731 1
      vertex -5.07613 -5.61731 30
    endloop
  endfacet
  facet normal 0.956933 0.29031 0
    outer loop
      vertex -5.07613 -5.61731 1
      vertex -5.01921 -5.80492 30
      vertex -5.01921 -5.80492 1
    endloop
  endfacet
  facet normal 0.881922 0.471396 0
    outer loop
      vertex -5.07613 -5.61731 30
      vertex -5.16853 -5.44443 1
      vertex -5.16853 -5.44443 30
    endloop
  endfacet
  facet normal 0.881922 0.471396 0
    outer loop
      vertex -5.16853 -5.44443 1
      vertex -5.07613 -5.61731 30
      vertex -5.07613 -5.61731 1
    endloop
  endfacet
  facet normal 0.773017 0.634386 0
    outer loop
      vertex -5.16853 -5.44443 30
      vertex -5.29289 -5.29289 1
      vertex -5.29289 -5.29289 30
    endloop
  endfacet
  facet normal 0.773017 0.634386 0
    outer loop
      vertex -5.29289 -5.29289 1
      vertex -5.16853 -5.44443 30
      vertex -5.16853 -5.44443 1
    endloop
  endfacet
  facet normal 0.634386 0.773017 -0
    outer loop
      vertex -5.29289 -5.29289 1
      vertex -5.44443 -5.16853 30
      vertex -5.29289 -5.29289 30
    endloop
  endfacet
  facet normal 0.634386 0.773017 0
    outer loop
      vertex -5.44443 -5.16853 30
      vertex -5.29289 -5.29289 1
      vertex -5.44443 -5.16853 1
    endloop
  endfacet
  facet normal 0.471396 0.881922 -0
    outer loop
      vertex -5.44443 -5.16853 1
      vertex -5.61731 -5.07613 30
      vertex -5.44443 -5.16853 30
    endloop
  endfacet
  facet normal 0.471396 0.881922 0
    outer loop
      vertex -5.61731 -5.07613 30
      vertex -5.44443 -5.16853 1
      vertex -5.61731 -5.07613 1
    endloop
  endfacet
  facet normal 0.29031 0.956933 -0
    outer loop
      vertex -5.61731 -5.07613 1
      vertex -5.80492 -5.01921 30
      vertex -5.61731 -5.07613 30
    endloop
  endfacet
  facet normal 0.29031 0.956933 0
    outer loop
      vertex -5.80492 -5.01921 30
      vertex -5.61731 -5.07613 1
      vertex -5.80492 -5.01921 1
    endloop
  endfacet
  facet normal 0.0980008 0.995186 -0
    outer loop
      vertex -5.80492 -5.01921 1
      vertex -6 -5 30
      vertex -5.80492 -5.01921 30
    endloop
  endfacet
  facet normal 0.0980008 0.995186 0
    outer loop
      vertex -6 -5 30
      vertex -5.80492 -5.01921 1
      vertex -6 -5 1
    endloop
  endfacet
  facet normal 0 1 -0
    outer loop
      vertex -6 -5 1
      vertex -14 -5 30
      vertex -6 -5 30
    endloop
  endfacet
  facet normal 0 1 0
    outer loop
      vertex -14 -5 30
      vertex -6 -5 1
      vertex -14 -5 1
    endloop
  endfacet
  facet normal -0.0980008 0.995186 0
    outer loop
      vertex -14 -5 1
      vertex -14.1951 -5.01921 30
      vertex -14 -5 30
    endloop
  endfacet
  facet normal -0.0980008 0.995186 0
    outer loop
      vertex -14.1951 -5.01921 30
      vertex -14 -5 1
      vertex -14.1951 -5.01921 1
    endloop
  endfacet
  facet normal -0.29031 0.956933 0
    outer loop
      vertex -14.1951 -5.01921 1
      vertex -14.3827 -5.07613 30
      vertex -14.1951 -5.01921 30
    endloop
  endfacet
  facet normal -0.29031 0.956933 0
    outer loop
      vertex -14.3827 -5.07613 30
      vertex -14.1951 -5.01921 1
      vertex -14.3827 -5.07613 1
    endloop
  endfacet
  facet normal -0.471396 0.881922 0
    outer loop
      vertex -14.3827 -5.07613 1
      vertex -14.5556 -5.16853 30
      vertex -14.3827 -5.07613 30
    endloop
  endfacet
  facet normal -0.471396 0.881922 0
    outer loop
      vertex -14.5556 -5.16853 30
      vertex -14.3827 -5.07613 1
      vertex -14.5556 -5.16853 1
    endloop
  endfacet
  facet normal -0.634386 0.773017 0
    outer loop
      vertex -14.5556 -5.16853 1
      vertex -14.7071 -5.29289 30
      vertex -14.5556 -5.16853 30
    endloop
  endfacet
  facet normal -0.634386 0.773017 0
    outer loop
      vertex -14.7071 -5.29289 30
      vertex -14.5556 -5.16853 1
      vertex -14.7071 -5.29289 1
    endloop
  endfacet
  facet normal -0.773017 0.634386 0
    outer loop
      vertex -14.8315 -5.44443 1
      vertex -14.7071 -5.29289 30
      vertex -14.7071 -5.29289 1
    endloop
  endfacet
  facet normal -0.773017 0.634386 0
    outer loop
      vertex -14.7071 -5.29289 30
      vertex -14.8315 -5.44443 1
      vertex -14.8315 -5.44443 30
    endloop
  endfacet
  facet normal -0.881922 0.471396 0
    outer loop
      vertex -14.9239 -5.61731 1
      vertex -14.8315 -5.44443 30
      vertex -14.8315 -5.44443 1
    endloop
  endfacet
  facet normal -0.881922 0.471396 0
    outer loop
      vertex -14.8315 -5.44443 30
      vertex -14.9239 -5.61731 1
      vertex -14.9239 -5.61731 30
    endloop
  endfacet
  facet normal -0.956933 0.29031 0
    outer loop
      vertex -14.9808 -5.80492 1
      vertex -14.9239 -5.61731 30
      vertex -14.9239 -5.61731 1
    endloop
  endfacet
  facet normal -0.956933 0.29031 0
    outer loop
      vertex -14.9239 -5.61731 30
      vertex -14.9808 -5.80492 1
      vertex -14.9808 -5.80492 30
    endloop
  endfacet
  facet normal -0.995186 0.0980008 0
    outer loop
      vertex -15 -6 1
      vertex -14.9808 -5.80492 30
      vertex -14.9808 -5.80492 1
    endloop
  endfacet
  facet normal -0.995186 0.0980008 0
    outer loop
      vertex -14.9808 -5.80492 30
      vertex -15 -6 1
      vertex -15 -6 30
    endloop
  endfacet
  facet normal 0.0980008 -0.995186 0
    outer loop
      vertex -6 -15 1
      vertex -5.80492 -14.9808 30
      vertex -6 -15 30
    endloop
  endfacet
  facet normal 0.0980008 -0.995186 0
    outer loop
      vertex -5.80492 -14.9808 30
      vertex -6 -15 1
      vertex -5.80492 -14.9808 1
    endloop
  endfacet
endsolid OpenSCAD_Model
