solid OpenSCAD_Model
  facet normal 1 -0 0
    outer loop
      vertex 10 -10 5.91308
      vertex 10 10 -10
      vertex 10 10 5.91308
    endloop
  endfacet
  facet normal 1 0 0
    outer loop
      vertex 10 10 -10
      vertex 10 -10 5.91308
      vertex 10 -10 -10
    endloop
  endfacet
  facet normal 0 0 -1
    outer loop
      vertex -10 -10 -10
      vertex 10 10 -10
      vertex 10 -10 -10
    endloop
  endfacet
  facet normal -0 0 -1
    outer loop
      vertex 10 10 -10
      vertex -10 -10 -10
      vertex -10 10 -10
    endloop
  endfacet
  facet normal -1 0 0
    outer loop
      vertex -10 -10 -10
      vertex -10 10 4.16331
      vertex -10 10 -10
    endloop
  endfacet
  facet normal -1 -0 0
    outer loop
      vertex -10 10 4.16331
      vertex -10 -10 -10
      vertex -10 -10 4.16331
    endloop
  endfacet
  facet normal 0 1 -0
    outer loop
      vertex 10 10 -10
      vertex -10 10 4.16331
      vertex 10 10 5.91308
    endloop
  endfacet
  facet normal 0 1 0
    outer loop
      vertex -10 10 4.16331
      vertex 10 10 -10
      vertex -10 10 -10
    endloop
  endfacet
  facet normal 0 -1 0
    outer loop
      vertex 10 -10 -10
      vertex -10 -10 4.16331
      vertex -10 -10 -10
    endloop
  endfacet
  facet normal 0 -1 0
    outer loop
      vertex -10 -10 4.16331
      vertex 10 -10 -10
      vertex 10 -10 5.91308
    endloop
  endfacet
  facet normal -0.0871556 0 0.996195
    outer loop
      vertex -10 10 4.16331
      vertex 10 -10 5.91308
      vertex 10 10 5.91308
    endloop
  endfacet
  facet normal -0.0871556 0 0.996195
    outer loop
      vertex 10 -10 5.91308
      vertex -10 10 4.16331
      vertex -10 -10 4.16331
    endloop
  endfacet
endsolid OpenSCAD_Model
